<svg width="356" height="113" viewBox="0 0 356 113" fill="none" xmlns="http://www.w3.org/2000/svg">
<path d="M2.21697 84.9076L2.22563 85.0515C2.22563 85.1004 2.2314 85.1522 2.23428 85.2012C3.01034 84.8472 3.79217 84.5306 4.62016 84.4155C3.80948 84.2831 3.019 84.6169 2.21697 84.9076ZM2.34103 82.6426C2.13042 83.2959 2.78531 83.4139 3.54983 83.2009C5.92129 82.5447 8.34757 81.9835 10.5546 80.8496C7.77057 81.0942 5.11061 82.6397 2.34103 82.6426ZM195.918 60.3264L195.361 49.6691C195.211 46.8054 194.824 44.4455 194.198 42.5863C193.572 40.7299 192.649 39.2852 191.432 38.2577C190.211 37.2303 188.616 36.5309 186.648 36.1625C184.678 35.7912 182.26 35.6819 179.39 35.8315C176.519 35.9812 174.133 36.3409 172.232 36.9108C170.331 37.4835 168.828 38.3412 167.72 39.4895C166.612 40.6378 165.856 42.1689 165.444 44.0799C165.034 45.991 164.901 48.3797 165.051 51.2434L165.608 61.9007C165.758 64.7643 166.127 67.1185 166.713 68.9605C167.302 70.8024 168.213 72.2443 169.454 73.289C170.692 74.3337 172.287 75.0504 174.24 75.4389C176.19 75.8274 178.602 75.9483 181.473 75.7987C184.343 75.649 186.738 75.2806 188.656 74.6906C190.575 74.1006 192.087 73.2228 193.192 72.0572C194.296 70.8916 195.064 69.3605 195.494 67.4668C195.546 67.2394 195.592 67.0034 195.635 66.7617C194.519 67.1559 193.385 67.6136 192.332 67.7172C190.869 67.8639 189.568 68.3964 188.221 68.6525C190.67 67.769 193.122 67.0811 195.655 66.635C195.955 64.8909 196.042 62.79 195.912 60.3293L195.918 60.3264ZM185.962 63.8692C185.841 64.6924 185.584 65.3514 185.191 65.8465C184.799 66.3386 184.26 66.6955 183.579 66.9113C182.898 67.13 182.047 67.2624 181.031 67.3171C180.013 67.3689 179.165 67.3229 178.481 67.1761C177.797 67.0293 177.235 66.7214 176.793 66.2551C176.349 65.786 176.035 65.1586 175.847 64.3671C175.659 63.5786 175.533 62.531 175.463 61.2243L174.924 50.8922C174.86 49.6604 174.878 48.6416 174.984 47.8358C175.088 47.0299 175.336 46.3651 175.729 45.8327C176.118 45.3031 176.646 44.9203 177.31 44.6872C177.97 44.4541 178.81 44.3102 179.828 44.2555C180.881 44.2008 181.75 44.2555 182.433 44.4196C183.117 44.5836 183.68 44.9002 184.124 45.3664C184.565 45.8355 184.891 46.463 185.096 47.2515C185.301 48.0401 185.437 49.0704 185.503 50.3396L186.043 60.6718C186.112 61.9784 186.083 63.0433 185.965 63.8664L185.962 63.8692ZM14.8821 107.71C15.335 108.024 15.7966 108.329 16.2697 108.62C16.8467 108.113 17.3112 107.523 18.1219 107.253C17.1583 106.737 15.9899 107.601 14.8849 107.71H14.8821ZM37.7456 43.8382C37.7975 44.8167 37.861 45.8586 37.936 46.9637C37.962 47.3609 37.9908 47.7811 38.0168 48.2128C38.5563 48.0228 39.09 47.8473 39.6035 47.7235C39.0756 47.8876 38.5476 48.0545 38.0168 48.2185C38.0629 48.987 38.112 49.8072 38.1581 50.685L38.5534 58.283C38.7957 58.2801 39.0409 58.2859 39.2919 58.3175C39.0496 58.3924 38.8073 58.4557 38.5649 58.5161L38.6111 59.4227C40.769 58.9593 42.8318 57.8455 45.3244 57.6988C42.878 58.1276 40.8065 59.2097 38.614 59.4831L38.9717 66.3213C39.2977 66.2954 39.6958 66.3156 39.8689 66.1976C39.6266 67.2193 40.4748 67.0207 41.5826 66.6408C42.8664 66.2004 44.1733 65.8033 45.4802 65.4291C45.9447 65.2939 46.4409 65.2737 47.4189 65.1269C44.4618 66.0652 41.8567 66.7991 39.0323 67.4639L39.4304 75.105C39.4823 76.0836 39.5285 76.9988 39.5747 77.8507C39.6179 78.7026 39.6612 79.4998 39.6987 80.2423C39.7218 80.6769 39.7362 81.1086 39.7449 81.5403C41.0806 81.0539 42.3039 80.4726 43.6511 80.7143C42.3298 80.556 41.1037 81.3101 39.7506 81.7993C39.7535 82.0152 39.7593 82.231 39.7593 82.4469L53.3303 81.7418C53.2957 81.6439 53.2437 81.5374 53.1716 81.4166C52.6985 80.651 54.6516 80.6021 55.2344 80.0437C54.9632 80.4236 54.1121 81.1029 55.6815 80.556C56.3826 80.3114 57.0634 79.8941 57.7414 79.7761C57.9809 79.7358 59.0137 79.7646 58.8464 80.3747C58.7194 80.841 58.4454 81.1086 57.6606 81.3964C57.5222 81.4453 57.3866 81.4914 57.2481 81.5403C59.3743 81.4281 61.1688 81.1633 62.6315 80.7431C64.1028 80.3229 65.2741 79.6984 66.1425 78.8695C66.6733 78.363 67.1119 77.7586 67.4552 77.0564C67.2734 77.0679 67.0974 77.0506 66.9388 76.9844C66.3502 76.734 65.8944 76.5872 65.3232 76.7167C66.1685 76.4232 67.008 76.1009 67.8677 75.8447C67.8879 75.839 67.911 75.8332 67.9312 75.8246C67.9514 75.7526 67.9773 75.6835 67.9947 75.6116C68.3611 74.2647 68.4967 72.6501 68.3986 70.765L68.3639 70.1117C68.2803 68.5173 68.035 67.1559 67.6312 66.0335C67.2244 64.9082 66.6041 63.9786 65.7646 63.2418C64.925 62.5051 63.7941 61.9525 62.3718 61.5898C62.0718 61.5121 61.7516 61.4431 61.4169 61.3798C61.6448 61.3049 61.867 61.2272 62.0747 61.1438C63.3758 60.6228 64.3884 59.9321 65.1097 59.0773C65.8309 58.2226 66.3271 57.2412 66.5954 56.1389C66.8666 55.0337 66.9647 53.776 66.8897 52.36L66.8637 51.8708C66.832 51.2405 66.7714 50.6476 66.6849 50.0893C65.1616 50.3857 63.5951 50.6562 62.2593 51.3297C63.5922 50.6361 65.1443 50.2994 66.6705 49.9914C66.4368 48.5121 66.0271 47.2889 65.427 46.3306C64.5933 44.9923 63.321 44.0598 61.6188 43.5302C59.9138 43.0007 57.626 42.8107 54.7555 42.9604L43.6396 43.5389C43.8214 43.5561 43.9598 43.6223 43.9973 43.8008C43.2271 44.3246 42.3702 44.0253 41.6317 44.3534C40.8729 44.6872 40.9364 44.1864 40.6998 44.0915C40.4084 43.9763 40.42 43.8267 40.5671 43.7001L37.7485 43.8468L37.7456 43.8382ZM58.4079 72.6472C58.1626 73.1681 57.753 73.5538 57.1846 73.8013C56.6134 74.0488 55.8402 74.1985 54.8564 74.2503L48.9682 74.5553L48.521 65.9644L54.3544 65.6623C55.37 65.6105 56.1778 65.6853 56.7721 65.8925C57.3664 66.0968 57.8107 66.448 58.1107 66.9401C58.4107 67.4351 58.5838 68.1517 58.6329 69.0957L58.7021 70.3995C58.7541 71.378 58.656 72.1292 58.4107 72.6501L58.4079 72.6472ZM53.1774 50.4519C54.1208 50.403 54.8911 50.472 55.4825 50.6591C56.0739 50.8462 56.4922 51.18 56.7374 51.6578C56.9798 52.1355 57.1269 52.8291 57.1731 53.7328L57.2048 54.3631C57.3375 54.343 57.4702 54.3286 57.6029 54.3084C58.9589 54.0149 60.2918 53.54 61.6333 53.2695C60.286 53.8019 58.9445 54.1012 57.6029 54.3084C57.4702 54.3372 57.3375 54.3631 57.2048 54.3862L57.225 54.7661C57.2712 55.6726 57.2019 56.395 57.0086 56.9303C56.8182 57.4685 56.4461 57.8599 55.895 58.1046C55.3411 58.3521 54.5766 58.4988 53.5957 58.5507L48.1431 58.8327L47.719 50.7311L53.1716 50.449L53.1774 50.4519ZM13.001 106.291C13.001 106.291 13.0212 106.283 13.0299 106.28C13.0126 106.263 12.9837 106.254 12.9462 106.248C12.9635 106.263 12.9837 106.277 13.001 106.294V106.291ZM355.81 66.6955L355.792 66.3559C353.885 66.9602 352.114 67.4006 350.371 67.9589C352.12 67.4121 353.871 66.8653 355.786 66.2666L355.671 64.0362C355.585 64.0592 355.46 64.0563 355.27 64.016C352.827 63.4893 350.873 64.4535 348.987 66.0278C349.033 64.9744 350.55 64.6607 351.367 64.0506C351.081 63.5843 350.028 64.3038 349.748 63.6879C351.632 62.9166 353.654 63.0461 355.59 62.4705L354.462 40.8623C354.107 40.9746 353.744 41.0868 353.352 41.2077C353.724 40.9055 354.073 40.6378 354.439 40.4393L354.214 36.1366C353.978 36.1683 353.741 36.1884 353.502 36.1827C353.735 36.1107 353.969 36.0359 354.203 35.9639L353.784 27.9256C353.496 22.394 351.687 17.2971 348.785 13.0117C348.692 13.1009 348.571 13.1844 348.433 13.2592C347.902 13.5384 347.408 13.7513 346.976 13.3743C346.756 13.1815 346.243 13.1585 345.853 13.0548C346.384 12.8879 346.935 12.6922 347.495 12.5483C347.743 12.485 348.032 12.3612 348.291 12.3037C342.617 4.43229 333.171 -0.500646 322.762 0.0404222L80.2126 12.6318C79.4596 13.0002 78.6258 13.3398 77.5757 13.5038C78.3662 13.1124 78.7845 12.9052 79.2374 12.6836L64.1086 13.4693C64.1721 13.6794 64.2846 13.8578 64.8298 13.6823C64.2471 14.6205 62.845 14.5342 61.5785 15.4436C62.1006 14.4449 63.1969 14.5485 63.3441 13.8924C62.7296 14.0132 62.1439 14.1312 61.4832 14.2607C61.6679 13.9499 61.9333 13.7341 62.2362 13.5671L28.153 15.3371C22.4811 15.6307 17.1381 17.5014 12.6173 20.7046C13.4713 20.5579 14.0166 20.4629 14.8821 20.3132C14.3858 20.5636 14.207 20.6902 14.005 20.7536C13.1713 21.0155 12.3346 21.2774 11.5009 21.5393C10.6325 22.2214 9.79583 22.9552 8.99957 23.7381C10.5979 23.5395 12.1904 23.4301 13.8088 22.8891C13.5752 22.2588 11.8499 22.6617 12.1933 22.0429C12.5654 21.3752 13.9127 21.2227 14.8388 21.0183C15.0869 20.9637 15.5341 21.5335 15.6264 21.8933C15.9091 23.0042 14.0512 22.9121 13.3097 23.4934C13.5579 23.9913 14.4032 23.3323 15.0263 23.5366C12.2423 24.5813 9.44386 25.2951 6.75794 26.1959C4.43841 29.0394 2.69876 32.2398 1.58804 35.6531C2.20255 35.2502 2.79974 34.8645 3.42578 34.5105C3.64792 34.3868 4.21338 34.0299 4.53362 34.3465C3.99701 34.5163 4.81346 34.9451 3.82679 35.1235C2.99592 35.2732 2.31218 35.8776 1.42937 36.1567C1.16107 37.0317 0.936037 37.921 0.751398 38.8218C1.72364 38.5887 2.69588 38.3642 3.64792 38.0793C4.28551 37.8749 4.91732 37.6504 5.54047 37.3943C4.92309 37.6648 4.29128 37.8864 3.64792 38.0793C2.68145 38.3901 1.70633 38.6577 0.731203 38.9225C0.26672 41.2278 0.082081 43.6022 0.183056 46.0082C1.86789 45.4125 3.84987 45.1937 4.87116 43.6914C5.09042 43.3691 5.69626 43.182 5.85494 43.6223C5.96168 43.9159 6.32231 43.9245 6.69158 43.9562C7.3609 44.0138 8.70531 43.2827 8.65626 44.0857C8.61587 44.7678 7.23973 44.7707 6.46367 45.116C6.89642 44.7649 7.32917 44.4138 8.11388 43.7778C5.47124 44.5894 3.2296 45.0182 1.0976 45.942C1.22742 46.486 3.27865 45.6456 2.37853 46.7882L2.45642 46.8112C2.45642 46.8112 2.45642 46.8112 2.45354 46.8112H2.45931C2.45354 46.8112 2.45065 46.8141 2.44488 46.8169C3.2498 47.2141 2.27756 48.5898 4.04605 48.4143C3.64504 48.5409 3.16325 48.7164 2.6728 48.8373C2.02368 48.9956 1.30243 49.2345 0.731203 49.2115C0.517714 49.2028 0.39366 49.1539 0.34173 49.0791L1.28224 67.13C1.52746 67.1387 1.76114 67.1934 1.85635 67.4294C1.67171 67.4581 1.48707 67.4812 1.29955 67.5013L1.3284 68.0798C1.96598 67.8985 2.60933 67.7258 3.26999 67.6049C2.62375 67.8236 1.9804 68.0481 1.33994 68.2784L1.48995 71.1622C3.35077 70.6671 5.17408 69.9994 7.07817 69.6512C5.22313 70.2959 3.36808 70.9377 1.51303 71.5823L1.53034 71.9018C3.84699 71.7205 6.12901 72.1608 8.53221 70.4858C8.5524 70.6499 8.5726 70.811 8.58991 70.9751C6.34827 71.6744 4.11818 72.4227 1.86212 73.0415C1.78422 73.0645 1.6919 73.0991 1.59381 73.1394L1.95155 79.9833C2.77666 79.4797 3.80083 79.3674 4.5365 78.9558C4.92597 78.3572 3.60176 79.0077 3.67677 78.8292C6.90219 77.8219 10.1045 76.8232 13.2895 75.8274L12.8741 67.887C11.9682 68.0942 11.0768 68.3215 10.2084 68.7072C10.9671 68.1633 11.899 67.9963 12.8712 67.8035L12.8395 67.1847C9.23326 68.2237 5.83186 69.2598 2.39584 70.1491C5.85782 69.067 9.32558 67.9848 12.8251 66.8912L12.7183 64.8334C12.124 65.0089 11.6336 65.2449 12.2019 65.9213C12.6029 66.4019 11.3566 67.0408 10.3844 67.0754C8.65049 67.1358 9.79006 65.6248 8.66492 65.2334C8.3793 65.1356 9.60831 64.6521 10.1738 64.4448C11.0219 64.134 11.8269 63.7397 12.6433 63.3771L12.6087 62.7295C12.476 62.7036 12.3664 62.6432 12.2942 62.5338C12.0721 62.1885 12.225 61.941 12.5568 61.7424L12.4298 59.3105C12.0721 59.4227 11.7143 59.5349 11.3566 59.6472C10.3642 59.9666 9.17844 60.0587 8.64472 60.9365C9.36885 60.7264 10.0901 60.5135 10.8171 60.3063C11.1373 60.2142 11.4576 60.1393 11.7807 60.0559C10.9787 60.3149 12.4818 60.7149 11.2701 60.9538C10.6209 61.0833 10.3642 61.7856 9.56215 61.705C9.9872 60.9989 9.69005 60.7456 8.67068 60.9452C7.13876 61.6158 5.70203 62.436 4.13549 62.7612C4.71248 62.3237 5.99919 62.4245 6.5935 61.5352C5.47701 61.5524 4.56823 61.2042 3.20941 61.7194C3.48637 61.0661 5.2664 61.0776 4.79903 60.2832C4.49899 59.7738 5.13946 59.8026 5.57509 59.7047C5.34718 60.1595 7.25993 58.9795 6.305 60.0933C6.00207 60.4473 6.83006 60.2803 7.12433 60.1681C7.8225 59.9005 8.47451 59.5436 9.16402 59.2529C10.0035 58.9018 10.0382 58.9162 10.5834 59.4054C10.8171 59.6155 11.1143 59.4256 11.423 59.3277C11.7519 59.2212 12.0807 59.1205 12.4125 59.0255L12.1875 54.7142C12.1038 54.7373 12.0548 54.743 12.0548 54.7258C12 52.9443 10.2776 54.8322 9.44675 54.7258C8.97649 54.6653 8.52067 55.3301 7.534 55.2812C9.08324 54.3833 10.6123 53.9544 12.1269 53.5544L12.1067 53.1544C10.5777 53.3529 9.07458 54.2653 7.5542 54.4581C7.62632 53.563 9.52753 52.3629 11.0104 52.2852C10.1478 52.8694 10.5286 52.8119 11.3018 52.6248C11.5557 52.5644 11.8153 52.5241 12.0721 52.4867L11.974 50.6332C11.7894 50.6735 11.6047 50.7138 11.423 50.7512C10.1651 51.0189 10.2199 51.0304 8.69088 52.3974C8.21486 52.8234 6.957 53.1601 6.71178 52.8032C6.37424 52.3197 4.60574 51.9254 7.03778 50.8203C4.94905 51.3182 3.22095 51.7643 1.55054 52.4723C2.77377 51.8506 4.25377 51.5628 5.26352 50.6706C3.67677 50.2101 2.43911 52.4665 0.846602 51.6923C4.62593 49.7727 9.67466 48.6704 10.5171 49.5712C9.97181 50.0547 8.7832 49.764 8.48605 50.544C9.23037 50.4577 8.56106 51.4362 9.54484 51.1225C10.4998 50.8174 11.8211 50.7541 11.9278 49.7353L11.7172 45.6974C11.6711 44.8138 11.6913 43.9389 11.7692 43.0726C11.4893 43.1734 11.2095 43.2741 10.9325 43.3777C11.2095 43.2424 11.4922 43.1187 11.7778 42.9978C11.8009 42.7705 11.8297 42.546 11.8586 42.3215C11.3076 42.4769 10.7421 42.6064 10.1622 42.6899C10.3296 41.9531 11.0479 42.0135 11.5239 41.8552C11.6624 41.8092 11.8038 41.766 11.9509 41.7257C12.1067 40.8076 12.3346 39.9039 12.6318 39.0261C11.6768 39.2794 10.7421 39.5845 9.85641 40.0104C10.745 39.4348 11.6942 39.1413 12.6635 38.9312C13.4396 36.6777 14.6686 34.5796 16.3188 32.7549C17.669 31.2612 19.2326 30.0266 20.9434 29.0768C19.5384 29.4164 18.0815 29.5977 16.714 30.0525C18.5258 29.3675 20.4357 28.979 22.2849 28.4033C23.3985 27.9026 24.5641 27.5169 25.77 27.2521C25.8969 27.1198 25.9748 26.9384 25.9719 26.6852C25.9691 26.3484 26.5143 26.2333 26.8951 26.2045C27.4404 26.1671 27.1548 26.4693 27.2038 26.6852C27.224 26.7744 27.224 26.8809 27.2183 26.9931C27.7231 26.924 28.2338 26.8722 28.7502 26.8463L56.3797 25.4131C56.8904 25.2807 57.4154 25.2692 57.9434 25.3325L94.1413 23.4531C94.8222 23.1884 95.6011 22.8085 96.2531 22.2415C94.727 22.0228 93.5095 23.3754 91.7439 23.3236C94.3894 21.8904 97.1936 21.7753 99.8074 20.5751C99.7007 21.5364 98.2899 21.4731 97.8427 22.0746C98.4601 22.207 98.9333 21.9566 99.4122 21.8386C97.6177 22.3998 95.8261 22.9581 94.248 23.4503L97.9379 23.2574C97.9956 23.1711 98.0505 23.0848 98.1081 22.9898C98.2034 22.8948 96.4608 23.6316 97.6754 22.9265C98.3909 22.512 99.2448 22.5897 99.4468 23.0358C99.467 23.0819 99.467 23.1308 99.4526 23.1797L246.368 15.553C246.639 14.8162 247.1 14.1427 248.704 13.8405C249.195 14.065 247.317 14.6119 248.477 14.5572C249.665 14.4996 251.592 14.2089 251.321 14.9284C251.275 15.0493 251.223 15.176 251.168 15.3026L323.368 11.5554C323.688 11.5381 324.005 11.5295 324.326 11.5295C327.167 11.5295 329.92 12.1914 332.407 13.4491C333.223 13.2074 333.953 12.9311 334.504 12.3526C334.625 12.226 335.167 12.0619 335.185 12.3958C335.202 12.7268 335.02 12.9541 334.386 13.1613C333.812 13.3513 333.232 13.452 332.62 13.5614C333.947 14.255 335.199 15.1155 336.342 16.143C339.91 19.352 342.014 23.7553 342.265 28.5415L344.244 66.4854C344.699 66.3357 345.118 66.1947 345.484 66.0709C345.126 66.2321 344.705 66.376 344.244 66.5113L344.284 67.3114C344.8 77.1916 337.161 85.6501 327.254 86.1653L152.522 95.2368C150.701 95.824 148.8 96.483 146.559 96.6758C148.567 96.3967 150.298 95.7865 151.959 95.2685L32.6449 101.462C26.6961 101.767 21.2637 99.1394 17.7613 94.8512C16.9621 95.1102 16.1226 95.4181 15.286 95.5448C16.1428 95.2224 16.815 94.9001 17.4699 94.4857C17.0314 93.9187 16.6246 93.3229 16.2524 92.7042C14.9484 93.0351 13.6733 93.7086 12.4067 94.0424C10.719 94.4857 10.5805 93.9619 9.58523 93.5561C11.2672 93.1359 12.5279 92.6696 14.0916 92.7732C13.1886 93.1445 12.5395 93.4093 11.8903 93.6769C11.9019 93.7518 11.9163 93.8237 11.9278 93.8985C13.3299 93.4611 14.732 93.0236 16.1717 92.5718C15.9928 92.2638 15.8197 91.953 15.6581 91.6335C15.4216 91.7055 15.2311 91.6652 15.0609 91.4637C14.7465 91.0867 13.9531 90.9514 14.0772 90.1312C14.3945 90.2521 14.7147 90.2866 15.0379 90.278C14.3022 88.4763 13.8492 86.525 13.7425 84.473L13.705 83.7506C12.952 83.9866 12.2394 84.2082 11.5989 84.4097C12.225 84.1392 12.9376 83.9089 13.7021 83.6873L13.6761 83.1779C11.7288 83.8082 9.62273 84.1536 8.01002 85.4256C7.91193 85.5033 7.33782 86.0962 7.1878 85.5494C6.90796 84.5335 5.97322 85.1378 5.3443 85.6444C4.49034 86.3322 3.5181 86.7812 2.4045 87.1697C2.51701 88.0878 2.67568 88.9915 2.87186 89.8808C3.83833 89.5815 4.82788 89.2678 5.89244 88.9368C5.50009 89.547 4.88847 89.6247 4.46726 89.6938C3.76332 89.8089 3.27576 89.9988 2.95553 90.2521C3.06804 90.7356 3.19498 91.2133 3.33058 91.6882C3.69697 91.5875 4.08644 91.3314 4.42976 91.1673C5.19428 90.7989 5.9011 90.4507 6.73774 90.678C5.43662 90.609 4.44995 91.3371 3.42867 92.0221C3.6912 92.8941 3.99412 93.746 4.33167 94.5806C6.93392 93.7029 9.39482 92.7617 10.9239 92.5459C9.49579 92.992 7.00028 93.7719 4.34032 94.6008C4.80769 95.7491 5.3443 96.86 5.94437 97.9278C7.6696 97.6112 9.40347 97.4184 11.097 96.7593C9.46406 97.686 7.78211 98.0544 6.0742 98.1551C6.48387 98.8689 6.92238 99.5654 7.38975 100.242C8.81493 99.7899 10.1478 99.4877 11.4085 100.204C10.1882 99.5855 8.89571 99.9683 7.52246 100.429C8.94764 102.452 10.6181 104.288 12.4904 105.891C12.5048 105.88 12.5164 105.871 12.5337 105.86C12.9837 105.54 13.7425 105.405 14.432 105.16C13.8319 104.752 13.0616 105.393 12.3404 105.166C14.9253 104.277 17.3285 103.511 19.7779 103.664C20.2972 103.695 20.9896 103.649 20.4587 104.274C19.3682 104.15 17.6401 105.186 17.0429 104.11C17.0285 104.081 16.189 104.337 16.1918 104.352C16.3649 105.909 14.1377 105.721 13.0414 106.337C13.0386 106.34 13.0357 106.346 13.0328 106.349C13.5896 106.804 14.1637 107.238 14.7522 107.65C17.1179 107.261 18.67 105.52 21.0069 105.097C20.7386 106.139 19.5846 106.74 18.2575 107.255C19.3596 107.638 20.5799 106.53 21.832 106.668C20.5078 107.158 19.2961 107.604 18.0844 108.05C18.1046 108.119 18.1248 108.185 18.145 108.254C19.0105 108.047 19.8789 107.84 21.0386 107.561C20.6261 107.886 20.352 108.102 19.5759 108.717C22.409 107.592 24.7458 107.497 27.2096 106.369C26.8115 107.327 25.5623 107.33 25.0574 107.814C25.5305 108.199 26.1191 107.656 26.448 107.699C24.3362 108.435 22.0051 109.06 19.7375 109.929C19.5182 110.013 19.299 110.087 19.0768 110.168C20.3982 110.795 21.7743 111.328 23.1908 111.754C24.7458 111.267 26.298 110.784 27.853 110.298C28.1415 110.015 28.6694 109.952 29.1108 109.906C28.6925 110.036 28.2742 110.168 27.853 110.298C27.7953 110.352 27.7462 110.416 27.7087 110.49C28.6463 110.752 29.7859 109.595 30.611 110.148C30.6399 110.139 30.6687 110.128 30.7004 110.116C30.7004 110.116 30.7033 110.11 30.7062 110.11C30.7178 110.113 30.7293 110.119 30.7408 110.122C31.4477 109.759 32.1776 109.434 33.1469 109.264C33.02 110.361 32.391 111.003 30.5187 111.288C29.1281 111.501 27.6337 111.662 26.3153 112.453C27.5529 111.734 28.906 111.345 30.311 111.095C30.836 111 31.5804 111.095 31.6756 110.545C31.7073 110.361 31.0957 110.254 30.7437 110.119C30.7149 110.133 30.6831 110.151 30.6543 110.165C30.6427 110.157 30.6283 110.151 30.6168 110.142C28.7386 110.767 27.1779 112.03 24.8006 111.59C24.4025 111.515 23.8688 111.604 23.2716 111.774C25.946 112.571 28.7733 113 31.6871 113C32.2006 113 32.7199 112.986 33.2392 112.96L139.961 107.42C140.145 107.362 140.33 107.304 140.512 107.247C140.517 107.278 140.526 107.313 140.532 107.345C140.474 107.362 140.419 107.379 140.362 107.399L316.744 98.2415C319.857 97.2687 322.97 96.2959 326.083 95.326C326.129 95.4412 326.175 95.5563 326.224 95.6685C323.273 96.3996 320.376 97.3205 317.468 98.2041L320.604 98.04C322.572 97.4011 324.557 96.7478 326.562 96.1981C324.6 96.8111 322.638 97.4241 320.673 98.0371L327.843 97.6659C334.094 97.3407 339.792 95.0872 344.397 91.5184C344.192 91.4983 343.99 91.4695 343.785 91.4292C344.094 91.3774 344.402 91.3256 344.708 91.2738C345.398 90.7241 346.064 90.1427 346.702 89.5326C346.468 89.5642 346.231 89.5901 345.992 89.6045C346.367 89.4606 346.722 89.3254 347.057 89.1901C347.368 88.8822 347.674 88.5685 347.971 88.2461C345.216 89.0174 342.873 90.3499 340.64 91.8609C340.084 92.2379 339.264 92.3818 338.554 92.3818C338.485 92.3818 338.494 92.1142 338.543 91.9645C338.771 91.2536 339.547 91.2134 340.291 91.1529C340.972 91.0982 341.587 90.8996 342.253 90.419C341.243 90.4823 340.337 90.537 338.979 90.6205C340.392 90.1801 341.333 89.8923 342.27 89.5901C342.619 89.4779 342.302 89.3196 342.957 88.7958C344.221 87.7856 346.154 87.6072 347.789 87.046C348.444 86.8215 348.848 86.8272 349.076 86.9827C349.832 86.0674 350.536 85.1091 351.179 84.1075C351.067 84.1248 350.954 84.1449 350.842 84.1564C350.709 83.8945 351.061 83.8082 351.419 83.7276C351.537 83.5377 351.652 83.3477 351.765 83.1549C351.528 83.1232 351.133 83.1721 350.83 83.1606C350.865 82.8182 351.502 82.8498 351.996 82.7635C352.278 82.2656 352.547 81.759 352.803 81.2439C352.374 81.2957 352.111 81.1892 352.18 80.8179C352.224 80.5819 351.722 80.3517 352.293 80.133C352.625 80.0063 353.014 79.9919 353.398 79.9689C354.165 78.2162 354.762 76.3771 355.178 74.4748C355.071 74.5035 354.967 74.5352 354.863 74.5726C354.944 74.5122 355.057 74.4719 355.184 74.4402C355.72 71.9594 355.942 69.3691 355.804 66.7127L355.81 66.6955ZM11.7663 73.1796C10.5113 73.5365 10.7536 73.5452 10.419 74.2042C10.0612 74.9122 9.5333 75.8533 8.03599 75.7584C9.25057 75.0475 8.21197 73.0271 11.7663 73.1796ZM9.08612 63.1756C9.08612 63.1756 9.10055 63.167 9.10632 63.1613C8.01579 62.6115 6.77236 63.5613 5.52317 63.5469C6.65696 63.1929 7.78499 62.8245 8.92456 62.4935C9.34289 62.3727 10.0093 61.9928 10.1305 62.4216C10.2257 62.7612 9.46983 62.908 9.1092 63.1613C9.13517 63.1756 9.16402 63.1843 9.18998 63.2015L9.08901 63.1756C9.08901 63.1756 9.18998 63.2015 9.19287 63.2015C9.17267 63.2102 9.15536 63.2159 9.13517 63.2217C9.4554 63.5498 9.55926 63.8549 8.56106 64.1225C7.27435 64.465 5.98765 64.8247 4.62305 65.1989C5.8232 63.9815 7.60901 63.7944 9.13517 63.2217C9.12074 63.2073 9.10632 63.19 9.08901 63.1756H9.08612ZM11.7172 31.0655C11.3826 31.1691 10.9441 31.3073 10.4363 31.4656C9.70351 31.88 8.82647 32.4355 7.68402 32.3261C8.70531 32.0066 9.65447 31.7102 10.4363 31.4656C10.9123 31.1979 11.3306 30.9878 11.7172 31.0655ZM3.49791 32.0038C5.04137 31.5231 7.50515 30.7518 9.97182 29.9834L10.0295 30.2309C7.53977 30.9072 5.04714 31.5836 3.49791 32.0066V32.0038ZM9.98335 46.0687C9.61119 47.1537 8.20909 47.3868 6.80121 47.8646C7.30032 47.1048 8.63318 47.2659 8.94187 46.4745C7.51092 46.8371 6.13478 47.1825 4.75864 47.5307C4.72691 47.3897 4.69517 47.2487 4.66344 47.1076C6.15786 46.6414 7.65517 46.1723 9.13805 45.7089C8.97072 45.0355 8.09369 45.7434 7.79365 45.4844C7.98694 45.2081 8.31872 45.2168 8.6303 45.1736C9.77563 45.0124 10.2315 45.3492 9.98624 46.0658L9.98335 46.0687ZM4.06913 36.9338C3.52964 37.1007 2.99303 37.2705 2.45354 37.4375C2.99015 37.2562 3.52675 37.0921 4.06913 36.9338C7.20223 35.9553 10.3353 34.9768 13.4684 33.9982C10.4651 35.3883 7.23685 36.01 4.06913 36.9338ZM17.2968 31.1461C16.3823 31.5548 15.4042 31.8282 14.4003 32.0786C13.6588 32.329 12.9087 32.5448 12.1644 32.6427C11.2672 32.8902 10.3786 33.1809 9.53041 33.6011C9.24768 33.7392 8.67069 33.9637 8.70242 33.4773C8.71973 33.2413 8.44854 32.965 8.61299 32.8125C8.82936 32.611 9.54772 32.3347 9.70063 32.3952C10.5113 32.7118 11.3364 32.752 12.1644 32.6456C12.9087 32.4412 13.6617 32.2685 14.4003 32.0815C15.3812 31.7534 16.3534 31.3706 17.2968 31.149V31.1461ZM50.4395 16.0825C47.9959 17.5705 45.7024 17.2337 43.8127 18.3101C45.6995 17.2337 47.8978 17.2309 50.4395 16.0825ZM47.1131 19.2397C48.6162 18.88 49.7991 18.1518 51.1781 18.0194C50.8953 18.4972 49.5404 18.904 47.1131 19.2397ZM55.2921 17.8957C56.5066 17.2568 57.5337 16.8395 58.3934 17.6626C57.0317 18.7102 56.3393 17.9676 55.2921 17.8957ZM104.663 17.0352C106.477 16.7704 107.228 15.2623 109.738 14.6982C108.465 15.5415 108.015 16.0854 107.655 16.6466C107.101 17.5129 106.12 17.5273 105.124 17.6252C104.276 17.7086 104.775 17.2453 104.663 17.0352ZM107.94 11.7914C105.704 12.6721 103.699 14.042 101.184 14.0075C103.518 13.4204 105.598 12.2058 107.94 11.7914ZM77.0189 15.4091C77.3132 15.3515 77.6074 15.2911 77.9017 15.2306C79.927 14.6838 82.0215 13.3254 83.9227 14.2751C81.9263 14.3759 79.9125 14.8191 77.9017 15.2306C77.6046 15.3112 77.3103 15.3717 77.0189 15.4091ZM80.6598 17.8122C81.2194 16.6668 81.8599 16.3013 84.3295 15.7113C83.9948 17.1819 82.0272 17.2251 80.6598 17.8122ZM88.7117 13.3254C90.0042 12.7383 91.7958 12.9138 93.345 12.0044C91.8102 12.98 90.0879 13.1124 88.7117 13.3254ZM98.088 19.2829C98.3563 18.6756 99.591 18.8426 99.7872 18.1029C98.1918 18.1835 96.7522 19.2455 94.6 19.1563C96.7262 18.2756 98.5294 18.1144 99.9199 17.2712C99.718 16.7071 98.8265 17.4496 98.564 17.0927C100.497 16.2437 100.794 17.3316 101.853 17.8093C100.457 18.1605 99.5449 19.067 98.088 19.2829ZM101.792 14.9169C102.159 14.7356 102.542 14.5831 102.935 14.4478C104.634 13.7974 106.405 13.2995 108.03 12.4821C106.567 13.5815 104.663 13.8521 102.935 14.4478C102.548 14.5946 102.167 14.7471 101.792 14.9169ZM103.142 18.9778C105.785 18.1518 108.425 17.3287 110.069 16.8164C108.5 17.5388 105.808 18.1921 103.142 18.9778ZM135.004 12.295C133.469 12.7929 131.886 12.7555 130.57 13.3484C131.816 12.6548 133.749 12.7843 134.892 11.5525C135.048 11.3856 135.593 11.2446 135.665 11.4892C135.743 11.754 135.691 12.0763 135.004 12.2979V12.295ZM164.437 16.6927C164.783 16.5027 165.236 16.3847 165.758 16.2811C167.03 15.8839 168.701 15.363 170.593 14.7702C168.854 15.8235 167.077 16.0135 165.758 16.2811C165.25 16.4394 164.803 16.5775 164.437 16.6927ZM174.107 17.2769C172.74 17.7029 171.263 18.1662 169.786 18.6267C171.231 18.0252 172.723 17.6395 174.107 17.2769C175.307 16.9028 176.427 16.5516 177.385 16.2523C176.453 16.6581 175.322 16.9574 174.107 17.2769ZM170.608 11.069C173.135 10.1106 175.737 9.46595 178.351 8.88747C175.905 10.2085 173.152 10.1739 170.608 11.069ZM183.859 16.1084C183.841 16.1142 183.824 16.1199 183.807 16.1228C185.843 15.4868 187.883 14.8507 189.92 14.2147C187.9 14.845 185.878 15.4781 183.859 16.1084ZM224.28 9.59546C222.97 10.0732 221.721 10.5423 220.59 10.7467C221.687 10.4042 222.947 10.0099 224.28 9.59546C225.446 9.16951 226.657 8.73493 227.883 8.47016C226.663 8.85005 225.446 9.23283 224.28 9.59546ZM274.04 5.31008C273.636 5.43672 273.27 5.55184 272.956 5.64969C273.25 5.47701 273.619 5.38779 274.04 5.31008C274.891 5.04531 275.933 4.72009 277.142 4.34307C276.014 5.04531 274.915 5.15179 274.04 5.31008ZM300.158 2.46372C300.173 2.52128 300.19 2.58172 300.204 2.63928C297.79 3.31849 295.378 3.99771 294.071 4.36321C295.412 3.94302 297.784 3.20337 300.155 2.46372H300.158ZM297.761 8.54786C299.749 7.83987 301.756 7.20095 303.689 6.69729C301.713 7.31319 299.737 7.93196 297.761 8.54786ZM315.206 3.5401C313.683 3.82502 312.16 4.02073 310.7 4.46395C312.05 3.52571 313.594 3.98044 314.952 2.96737C315.671 2.43206 314.615 3.44225 315.232 3.35878C315.348 3.34439 316.479 3.30122 315.206 3.5401ZM322.055 4.57331C320.91 5.38204 319.188 5.64106 317.321 6.05262C319.078 5.50291 320.731 4.98775 322.055 4.57331ZM325.09 9.35083C323.677 9.7998 322.058 10.2603 320.518 10.4617C321.972 9.96385 323.642 9.67893 325.09 9.35083C326.083 9.03425 326.974 8.7263 327.669 8.51333C327.02 8.87308 326.109 9.12059 325.09 9.35083ZM9.03419 91.5414C7.98694 91.8695 7.00028 92.1775 6.16363 92.4394C6.95123 91.9213 7.9754 91.7573 9.03419 91.5414C9.78718 91.3054 10.569 91.0608 11.3537 90.8162C10.6152 91.1961 9.81602 91.3803 9.03419 91.5414ZM10.0064 98.0918C12.4183 96.9291 14.383 96.5492 16.3303 96.1175C14.4435 96.7075 12.5568 97.2975 10.0064 98.0918ZM16.9217 100.337C16.9217 100.337 16.9275 100.348 16.9333 100.357C16.916 100.365 16.8987 100.374 16.8814 100.383C17.5103 100.34 18.1392 100.294 18.7681 100.25C17.1497 100.95 15.3494 101.085 13.7511 101.874C14.7955 101.376 15.8399 100.881 16.8842 100.383C16.8727 100.383 16.864 100.383 16.8525 100.383C16.8785 100.368 16.9016 100.351 16.9275 100.337C16.0649 98.8142 16.1457 98.7106 18.6527 98.5207C19.498 98.4573 19.9394 97.7925 20.8107 97.853C18.8345 98.2444 18.2373 99.5193 16.9304 100.337H16.9217ZM25.6546 110.231C25.4007 110.447 24.6795 110.447 24.6074 110.246C24.44 109.771 25.8421 109.172 25.0286 108.717C25.8998 108.441 26.7653 108.634 26.7422 108.867C26.699 109.279 26.145 109.811 25.6546 110.231ZM22.8331 105.045C22.7927 104.93 22.7523 104.812 22.7119 104.697C24.1025 104.262 25.493 103.828 27.5154 103.197C25.6892 104.392 24.2035 104.565 22.8331 105.045ZM112.377 99.646C113.39 99.3006 114.547 99.0329 115.686 98.5984C114.691 99.3898 113.41 99.4387 112.377 99.646C111.91 99.8043 111.469 99.9798 111.079 100.196C111.402 99.8963 111.858 99.7496 112.377 99.646ZM93.0306 102.092C94.4327 101.655 96.2185 101.096 98.2466 100.463C96.3916 101.623 94.4817 101.802 93.0306 102.092C92.4911 102.259 92.0064 102.412 91.591 102.541C91.9804 102.331 92.4709 102.205 93.0306 102.092ZM91.2621 107.73C91.2477 107.684 91.2361 107.635 91.2217 107.589C92.318 107.247 93.4114 106.904 94.5077 106.565C94.5221 106.611 94.5337 106.66 94.5481 106.706C93.4518 107.048 92.3584 107.391 91.2621 107.73ZM103.171 102.504C100.967 103.192 98.8265 103.859 96.6887 104.527C98.6938 103.376 100.938 103.091 103.171 102.504C103.763 102.32 104.357 102.133 104.96 101.946C104.369 102.17 103.771 102.346 103.171 102.504ZM109.824 102.354C112.302 101.58 114.78 100.806 117.256 100.034C117.256 100.034 117.256 100.04 117.259 100.043C114.78 100.817 112.302 101.592 109.824 102.366C109.824 102.363 109.824 102.36 109.824 102.357V102.354ZM122.348 104.942C119.916 105.701 117.438 106.476 114.832 107.287C117.36 106.288 119.878 105.629 122.348 104.942C123.914 104.452 125.464 103.969 127.01 103.485C125.484 104.046 123.926 104.501 122.348 104.942ZM132.757 106.657C134.543 105.589 136.568 105.359 138.036 105.008C136.608 105.454 134.681 106.055 132.757 106.657ZM298.061 94.4022C297.937 94.3216 298.494 93.5647 298.909 93.392C299.974 92.9488 301.136 92.661 302.368 92.3732C301.154 92.8049 301.413 93.6424 300.412 94.1806C300.602 94.2065 300.784 94.2094 300.966 94.1979C301.736 93.959 302.504 93.7172 303.274 93.4784C303.516 93.3863 303.759 93.3057 304.001 93.251C303.759 93.3258 303.516 93.4035 303.274 93.4784C302.533 93.7604 301.788 94.1489 300.966 94.1979C299.89 94.5346 298.811 94.8713 297.735 95.2081C298.646 94.6641 298.554 94.7245 298.061 94.4022ZM170.64 105.002C172.469 103.859 174.661 103.744 176.588 103.146C174.606 103.764 172.622 104.383 170.64 105.002ZM225.359 94.2439C227.18 93.6913 229.063 92.9546 231.028 92.4739C229.138 93.0639 227.249 93.6539 225.359 94.2439ZM298.315 98.2645C298.747 97.6544 299.832 97.758 300.196 97.0903C299.076 96.9665 298.023 97.7091 296.748 97.8242C299.653 96.791 302.4 96.0427 305.239 95.5477C302.708 95.9736 301.029 97.7752 298.315 98.2616V98.2645ZM320.368 95.988C320.578 96.3334 319.874 96.7967 319.089 96.9291C318.397 97.0442 317.803 97.0068 317.624 96.5895C317.459 96.2096 317.468 95.8297 318.36 95.4959C319.609 95.0296 320.754 94.2957 322.427 94.2756C321.392 94.7245 319.617 94.7533 320.37 95.988H320.368ZM329.397 88.9627C329.778 88.9512 330.148 88.9109 330.514 88.8534C332.404 88.5224 334.094 87.5093 335.944 87.0373C334.135 87.6504 332.409 88.5425 330.514 88.8534C330.15 88.9167 329.778 88.9599 329.397 88.9627ZM332.259 93.4438C333.5 93.2625 333.788 92.2264 334.931 92.0019C334.625 92.2293 334.253 92.4768 334.27 92.7991C335.185 92.8855 335.981 91.6796 336.945 92.2984C335.418 93.1934 333.829 93.1934 332.259 93.4438ZM339.028 88.131C338.875 88.1742 338.728 88.2001 338.583 88.2029C338.736 88.1799 338.883 88.1569 339.028 88.131C339.994 87.8547 341.183 86.8186 342.79 86.0847C341.719 87.3654 340.721 87.8374 339.028 88.131ZM347.85 60.5336C348.909 59.1781 351.029 60.2688 352.108 59.0572C351.038 60.289 349.347 60.148 347.85 60.5336ZM343.597 54.0149C343.586 53.7846 343.54 53.3213 343.944 53.3386C345.473 53.4019 346.762 52.8867 348.086 52.1902C348.173 52.1442 348.591 52.4377 349.036 52.6651C347.406 53.3098 345.773 53.2062 344.472 54.13C344.275 54.2682 343.618 54.4092 343.597 54.0149ZM344.841 57.6757C346.061 57.293 347.518 56.8411 348.975 56.3864C347.616 57.1577 346.165 57.6239 344.841 57.6757ZM353.427 69.939C353.262 70.4369 352.573 70.5031 352.05 70.7046C350.749 71.0067 349.448 71.3089 348.147 71.6083C348.098 71.6198 348.046 71.5967 347.997 71.591C349.163 71.1622 346.777 70.8571 348.427 70.4283C348.805 70.3304 349.336 69.9447 349.509 70.4484C349.895 71.5737 351.061 70.7333 351.75 70.2585C352.267 69.9016 352.538 69.4382 353.308 69.5591C353.432 69.5792 353.473 69.8037 353.427 69.9419V69.939ZM70.5825 56.1475L71.1393 66.8048C71.2893 69.6685 71.6586 72.0227 72.2442 73.8646C72.8328 75.7066 73.7444 77.1485 74.985 78.1932C76.2226 79.2379 77.818 79.9545 79.7712 80.3431C81.7214 80.7316 84.1333 80.8525 87.0038 80.7028C89.8744 80.5532 92.2689 80.1848 94.1875 79.5948C96.106 79.0048 97.6177 78.127 98.7227 76.9614C99.8276 75.7958 100.595 74.2647 101.025 72.3709C101.455 70.4772 101.596 68.0971 101.446 65.2334L100.889 54.5761C100.863 54.0926 100.829 53.6264 100.791 53.1716C97.5542 54.1818 94.3173 55.192 91.0803 56.2022L91.1582 57.6815C92.4276 57.057 94.2336 56.5533 96.1175 56.2166C94.3173 56.7778 92.5228 57.339 91.1611 57.765L91.3977 62.3266C91.7352 62.1539 92.1305 62.0561 92.569 61.9755C93.446 61.7021 94.4731 61.3798 95.6703 61.0056C94.5481 61.6877 93.4691 61.8086 92.569 61.9755C92.142 62.1079 91.7525 62.2288 91.3977 62.341L91.5679 65.5817C91.6371 66.8883 91.6083 67.9503 91.49 68.7763C91.3688 69.5994 91.1121 70.2585 90.7197 70.7535C90.3273 71.2456 89.7878 71.6025 89.107 71.8183C88.4261 72.0371 87.5751 72.1695 86.5595 72.2242C85.5412 72.276 84.693 72.2299 84.0092 72.0831C83.3284 71.9363 82.7658 71.6284 82.3215 71.1622C81.8772 70.693 81.5628 70.0656 81.3752 69.2742C81.1877 68.4856 81.0608 67.438 80.9915 66.1314L80.452 55.7993C80.3886 54.5675 80.4059 53.5486 80.5126 52.7428C80.6165 51.937 80.8646 51.2721 81.2569 50.7397C81.6464 50.2101 82.1744 49.8274 82.8379 49.5942C83.4986 49.3611 84.3381 49.2172 85.3565 49.1625C86.4095 49.1079 87.2779 49.1625 87.9616 49.3266C88.6454 49.4906 89.208 49.8072 89.6523 50.2735C90.0937 50.7426 90.4197 51.37 90.6245 52.1586C90.8293 52.9471 90.9649 53.9775 91.0313 55.2467L91.0774 56.1274C94.3144 55.1172 97.5485 54.107 100.785 53.0968C100.676 51.842 100.517 50.6965 100.304 49.6604C99.2217 50.118 98.0331 50.3627 96.934 50.7685C95.3934 51.3383 93.7028 51.4793 92.1478 52.1327C94.6404 50.6908 97.6033 50.4922 100.272 49.5079C100.214 49.2431 100.156 48.987 100.093 48.7366C99.2535 48.9985 98.4342 49.2546 97.661 49.4964C98.3938 49.1222 99.2073 48.846 100.061 48.61C99.9603 48.2214 99.8536 47.8415 99.7324 47.4904C99.1294 45.6974 98.2437 44.2929 97.0869 43.2741C95.3588 43.8152 93.5816 44.3678 91.8073 44.9232C91.8016 44.9002 91.7929 44.8772 91.7871 44.8541C93.5326 44.3102 95.2809 43.7634 97.0263 43.2194C97.0061 43.2021 96.9888 43.182 96.9686 43.1647C96.4406 42.7215 95.8405 42.3416 95.1741 42.0222C94.8481 42.0682 94.5423 42.1085 94.2682 42.1574C93.8903 42.2754 93.5701 42.3905 93.3422 42.5258C93.547 42.3301 93.873 42.2294 94.2682 42.1574C94.4961 42.0884 94.7443 42.0164 95.0126 41.9445C94.1759 41.5588 93.2354 41.2652 92.1853 41.0695C90.2148 40.6983 87.7972 40.5889 84.9266 40.7386C82.0561 40.8882 79.6702 41.248 77.769 41.8178C75.8678 42.3905 74.3618 43.2482 73.2569 44.3965C72.149 45.5449 71.3932 47.076 70.9806 48.987C70.8595 49.554 70.7643 50.1641 70.6921 50.8145C72.6683 50.521 74.5003 49.4647 76.4881 49.2259C74.6013 49.9972 72.6885 50.6332 70.6921 50.8318C70.5219 52.3715 70.4844 54.1415 70.5911 56.1504L70.5825 56.1475ZM86.6836 44.5548C85.6969 44.9606 84.6208 45.2542 83.5159 45.5449C82.0676 45.9967 80.5847 46.4601 79.1019 46.9234C80.5443 46.3047 82.0561 45.9276 83.5159 45.5449C84.5978 45.2081 85.6594 44.8743 86.6836 44.5548ZM75.36 44.6153C74.5638 44.8628 73.7993 45.1016 73.0867 45.3261C73.7675 44.9865 74.5436 44.7908 75.36 44.6153C76.6352 44.2181 77.9911 43.795 79.3471 43.3691C79.4192 43.3461 79.4884 43.3259 79.6298 43.2799C78.2566 44.0713 76.7477 44.3131 75.36 44.6124V44.6153ZM2.35257 86.6459C2.36411 86.7438 2.37565 86.8388 2.38719 86.9366C2.64972 86.8647 2.91802 86.7898 3.1921 86.7006C2.90648 86.6517 2.62664 86.6402 2.35257 86.6459ZM114.296 49.5683L110.739 40.0478L99.8363 40.6148C100.693 42.3877 101.686 44.4627 102.811 46.84C102.955 47.1422 103.099 47.4501 103.243 47.7552C104.648 47.3177 106.059 46.8774 107.401 46.4572C106.146 47.1163 104.721 47.5077 103.284 47.8444C104.265 49.9137 105.283 52.0521 106.339 54.2653C107.565 56.8382 108.765 59.3738 109.934 61.8748C110.851 63.8347 111.72 65.691 112.548 67.4437L112.723 70.8082C112.807 72.44 112.874 73.8905 112.923 75.1597C112.969 76.4289 113.021 77.5917 113.075 78.6421L122.778 78.1385C122.685 77.088 122.607 75.931 122.541 74.6618C122.492 73.7092 122.437 72.6559 122.377 71.5018C121.534 71.8097 120.692 72.1177 119.847 72.4256C120.617 71.9565 121.488 71.6716 122.371 71.4183C122.351 71.0585 122.333 70.6902 122.313 70.3131L122.129 66.7473C122.755 64.9485 123.418 63.0375 124.125 61.0056C125.011 58.4528 125.914 55.8424 126.831 53.1774C127.748 50.5123 128.634 47.9394 129.488 45.4585C130.342 42.9777 131.121 40.8134 131.828 38.9571L129.667 39.0693C129.491 39.101 129.315 39.1326 129.139 39.1585C129.278 39.1355 129.416 39.1038 129.555 39.0751L121.254 39.5068L119.281 47.6976C119.668 47.6084 120.051 47.5106 120.432 47.3954C120.043 47.5163 119.656 47.6372 119.267 47.7609L118.874 49.3928C118.759 49.8792 118.649 50.4087 118.543 50.9728C119.795 50.5814 121.05 50.19 122.302 49.7986C122.316 49.8475 122.33 49.8964 122.345 49.9454C121.067 50.3454 119.789 50.7426 118.511 51.1426C118.436 51.5513 118.364 51.9744 118.292 52.4233C118.193 53.0508 118.095 53.6897 117.997 54.3344C118.606 54.1444 119.215 53.9545 119.826 53.7645C120.799 53.4307 121.777 53.1112 122.772 52.8435C121.791 53.1515 120.807 53.4566 119.826 53.7645C119.212 53.9746 118.6 54.1933 117.989 54.4063C117.914 54.9042 117.839 55.405 117.764 55.9144C117.588 57.1059 117.42 58.2686 117.262 59.4025C117.256 59.4428 117.25 59.4803 117.244 59.5177C117.23 59.4716 117.218 59.4256 117.204 59.3767C116.889 58.2485 116.566 57.103 116.232 55.9374C116.148 55.6496 116.07 55.3676 115.986 55.0826C114.922 55.428 113.846 55.7388 112.738 55.9748C113.811 55.641 114.881 55.3042 115.955 54.9704C115.718 54.1444 115.484 53.3242 115.259 52.527C115.228 52.4118 115.193 52.3025 115.161 52.1873C114.844 52.2852 114.527 52.3859 114.212 52.4838C114.198 52.4349 114.186 52.3859 114.172 52.337C114.489 52.2391 114.804 52.1384 115.121 52.0406C114.853 51.1282 114.576 50.3022 114.29 49.577L114.296 49.5683ZM120.628 63.8203C119.252 64.2491 117.879 64.678 116.503 65.1097C117.87 64.6262 119.252 64.2347 120.628 63.8203ZM158.324 50.118C158.978 48.7021 159.633 47.2889 160.288 45.873C160.943 44.457 161.598 43.0323 162.253 41.5991C162.908 40.1658 163.56 38.7412 164.218 37.3252V37.2705L152.712 37.8663L149.853 45.9219C149.4 47.0357 148.939 48.2963 148.466 49.7007C148.134 50.6908 147.779 51.8017 147.404 53.0277L144.929 53.1572L144.51 45.1621C144.438 43.7835 144.375 42.5517 144.317 41.4638C144.259 40.3759 144.225 39.3255 144.207 38.3066L134.557 38.8074C134.609 39.8234 134.672 40.8738 134.75 41.9617C134.825 43.0496 134.897 44.2814 134.97 45.6571L136.245 70.0743C136.297 71.0528 136.343 71.968 136.389 72.8199C136.432 73.6718 136.476 74.469 136.513 75.2115C136.551 75.9541 136.571 76.6908 136.574 77.4161L146.221 76.9153C146.184 76.1901 146.135 75.4475 146.077 74.6877C146.019 73.9279 145.967 73.1307 145.924 72.2961C145.881 71.4615 145.832 70.5376 145.78 69.5217L145.341 61.0919L147.84 60.9624C148.272 61.9841 148.691 62.9253 149.089 63.7887C149.747 65.2104 150.341 66.5055 150.877 67.6769L151.916 69.7001C152.456 69.3404 153.001 68.9317 153.494 68.9231C153.309 69.1706 152.709 69.5159 151.988 69.844L155.378 76.4433L166.935 75.8447L166.984 75.7325C166.104 74.2503 165.236 72.7882 164.376 71.3406C163.517 69.8958 162.668 68.4568 161.829 67.0293C160.989 65.6018 160.167 64.1542 159.362 62.6864C158.557 61.2186 157.744 59.7623 156.921 58.3147C156.497 57.5692 156.082 56.8152 155.669 56.0612C155.915 55.5 156.163 54.9359 156.414 54.3603C157.031 52.9471 157.669 51.534 158.324 50.118ZM244.689 42.8539C244.478 43.7375 244.285 44.7477 244.109 45.8816C243.93 47.0184 243.754 48.1811 243.581 49.3726C243.405 50.5641 243.237 51.7269 243.079 52.8608C243.073 52.9011 243.067 52.9385 243.061 52.9759C243.047 52.9299 243.035 52.8838 243.021 52.8349C242.707 51.7067 242.383 50.5613 242.049 49.3957C241.714 48.2329 241.391 47.0961 241.079 45.9852C240.765 44.8743 240.442 43.8929 240.104 43.0352L236.547 33.5147L225.645 34.0817C226.502 35.8546 227.494 37.9296 228.619 40.3069C229.744 42.6841 230.921 45.1592 232.15 47.7293C233.376 50.3022 234.577 52.8378 235.745 55.3388C236.533 57.0224 237.283 58.6255 238.004 60.1537C238.35 60.1048 238.65 60.0616 238.919 60.0213C240.214 59.7824 241.449 59.3335 242.649 58.7607C240.993 59.6299 240.779 59.7422 238.919 60.0213C238.619 60.076 238.313 60.1249 238.004 60.1566C238.122 60.407 238.241 60.6631 238.359 60.9078L238.535 64.2722C238.61 65.6939 238.67 66.9804 238.717 68.1258C240.566 67.6913 242.357 66.966 244.195 66.4825C244.79 66.3213 245.387 66.1889 245.998 66.1055C245.39 66.1947 244.79 66.3271 244.195 66.4825C242.357 66.9804 240.575 67.7431 238.717 68.1431C238.722 68.3043 238.728 68.4654 238.734 68.6237C238.78 69.8929 238.832 71.0557 238.887 72.1061L248.589 71.6025C248.497 70.552 248.419 69.3951 248.352 68.1258C248.286 66.8566 248.211 65.4061 248.125 63.7743L247.937 60.2084C248.563 58.4096 249.227 56.4986 249.933 54.4667C250.819 51.9111 251.722 49.3036 252.64 46.6385C253.557 43.9735 254.443 41.4005 255.297 38.9197C256.151 36.4388 256.93 34.2745 257.636 32.4182L247.06 32.9679L244.68 42.851L244.689 42.8539ZM221.003 42.9921C221.637 42.9575 222.318 42.923 223.048 42.8856C223.775 42.8482 224.537 42.8079 225.339 42.7676L224.889 34.122L196.489 35.5955L196.939 44.2411C197.704 44.2008 198.393 44.1663 199.011 44.1346C199.628 44.103 200.199 44.0742 200.727 44.0454C201.252 44.0166 201.771 43.9907 202.282 43.9648C202.79 43.9389 203.298 43.913 203.808 43.8842L206.425 43.749L207.605 66.3702C207.657 67.3488 207.703 68.264 207.749 69.1159C207.792 69.9678 207.836 70.765 207.873 71.5075C207.876 71.5881 207.879 71.6658 207.882 71.7435C207.891 71.7406 207.899 71.7378 207.911 71.7349C207.911 71.7349 207.911 71.7378 207.911 71.7406C207.902 71.7435 207.891 71.7464 207.882 71.7493C207.914 72.4112 207.931 73.0674 207.934 73.7121L217.581 73.2113C217.506 72.4889 217.449 71.7464 217.411 70.9837C217.371 70.2239 217.33 69.4238 217.287 68.5921C217.244 67.7575 217.195 66.8336 217.143 65.8177L215.966 43.2511L219.399 43.0726C219.834 43.0496 220.371 43.0208 221.006 42.9892L221.003 42.9921ZM279.476 36.4676C278.951 34.4587 278.527 32.7549 278.198 31.3533L261.897 32.1995C261.681 33.6298 261.416 35.3682 261.104 37.4202C260.793 39.4722 260.455 41.7344 260.091 44.2066C259.728 46.6788 259.333 49.2 258.9 51.7672C258.467 54.3344 258.072 56.8354 257.706 59.273C257.342 61.7107 256.984 63.9642 256.638 66.0364C256.289 68.1086 255.989 69.8411 255.735 71.237L265.928 70.7074L266.609 64.5657L276.227 64.0649L277.537 70.103L288.168 69.5505C287.805 68.1892 287.352 66.494 286.809 64.4679C286.267 62.4417 285.678 60.2372 285.044 57.8513C284.409 55.4683 283.743 53.022 283.047 50.5123C282.684 49.2028 282.338 47.9077 282.006 46.6212C280.858 46.9781 279.712 47.3379 278.564 47.6947C278.547 47.617 278.527 47.5393 278.506 47.4616C279.663 47.1479 280.823 46.8371 281.98 46.5234C281.686 45.3779 281.4 44.2411 281.129 43.1129C280.921 42.2466 280.716 41.4063 280.514 40.5947C280.468 40.6091 280.422 40.6234 280.376 40.6407C280.422 40.6234 280.465 40.6033 280.511 40.586C280.457 40.3644 280.402 40.1457 280.347 39.927C279.836 40.114 279.314 40.2982 278.786 40.304C279.305 40.1457 279.816 39.9903 280.324 39.8349C280.03 38.6549 279.744 37.5296 279.467 36.4647L279.476 36.4676ZM273.726 52.5241L274.522 56.1907L267.497 56.5562L267.898 52.9356C268.169 50.449 268.429 47.9451 268.68 45.424C268.862 43.6051 269.044 41.8898 269.225 40.2694L271.098 40.1716C271.45 41.7603 271.816 43.4295 272.194 45.1851C272.598 47.0501 272.984 48.9122 273.368 50.7771C274.245 50.5037 275.125 50.2274 276.002 49.954C276.025 50 276.048 50.0461 276.071 50.0921C275.18 50.3713 274.288 50.6476 273.4 50.9268C273.51 51.4563 273.619 51.9888 273.726 52.5183V52.5241ZM7.20511 84.0499C9.30827 83.4024 11.4114 82.7404 13.6213 82.0497L13.604 81.7188C12.9376 81.5921 12.1009 82.1303 11.6249 81.7015C12.1615 81.4569 12.6866 81.218 13.2088 80.9791C12.1529 80.7863 10.6758 81.1259 10.4219 81.7389C9.81603 83.1923 8.79762 83.1232 7.47342 82.9534C6.85891 82.8757 6.58196 83.1808 6.32231 83.5175C6.16363 83.7219 5.86071 83.9348 6.09151 84.1133C6.37135 84.3291 6.81852 84.1679 7.208 84.0499H7.20511ZM310.994 30.3057C309.335 29.9546 307.273 29.8452 304.8 29.9719L289.045 30.7892C289.097 31.8052 289.161 32.847 289.236 33.9148C289.311 34.9825 289.38 36.1711 289.449 37.4749L290.465 56.9649C294.884 55.5834 299.304 54.2048 303.724 52.8234C303.75 52.8378 303.776 52.8522 303.802 52.8694C299.356 54.2566 294.913 55.6467 290.467 57.0339L290.73 62.0532C290.811 63.5757 290.868 64.8996 290.909 66.0249C290.949 67.1502 290.998 68.2755 291.059 69.3979L300.706 68.8971C300.611 67.7747 300.533 66.6523 300.476 65.527C300.418 64.4046 300.349 63.0807 300.268 61.5582L300.109 58.5017C300.611 58.4816 301.119 58.4614 301.635 58.4327C302.472 58.3895 303.271 58.3492 304.033 58.3089C304.794 58.2686 305.542 58.2312 306.269 58.1938C308.738 58.0643 310.789 57.7131 312.416 57.1375C313.135 56.8843 313.781 56.585 314.367 56.2425C313.697 56.4526 313.031 56.6598 312.362 56.8699C312.362 56.8123 312.362 56.7576 312.359 56.7001C313.207 56.4353 314.055 56.1705 314.9 55.9058C315.368 55.5863 315.789 55.2352 316.158 54.8524C314.823 55.2121 313.487 55.5834 312.194 56.0497C313.585 55.5201 314.999 55.0423 316.415 54.5732C317.053 53.8365 317.552 52.9673 317.904 51.9571C316.487 52.3514 315.059 52.7227 313.625 53.0738C315.076 52.619 316.53 52.1672 317.982 51.7125C318.034 51.5513 318.083 51.3873 318.126 51.2174C316.415 51.7528 314.701 52.2852 312.991 52.8205C312.962 52.7255 312.93 52.6277 312.901 52.5327C314.644 51.9888 316.386 51.4448 318.212 50.875C318.218 50.8433 318.23 50.8145 318.236 50.7829C318.38 50.1296 318.484 49.4302 318.55 48.6848C316.882 49.2057 315.336 49.6892 313.793 50.1698C315.278 49.4129 316.825 48.8747 318.57 48.4373C318.648 47.43 318.66 46.3421 318.599 45.1736L318.538 44.031C317.529 44.3879 316.519 44.7448 315.509 45.0988C315.475 45.0067 315.44 44.9146 315.405 44.8225C316.447 44.4973 317.488 44.172 318.527 43.8468L318.414 41.6912C318.296 39.4435 317.979 37.5353 317.459 35.961C316.94 34.3896 316.147 33.1406 315.076 32.2139C314.609 31.8081 314.078 31.4598 313.498 31.1663C312.535 31.4598 311.554 31.6613 310.527 31.6498C311.513 31.5749 312.466 31.3792 313.4 31.1173C312.679 30.7633 311.877 30.487 310.986 30.3L310.994 30.3057ZM291.722 62.8619C291.529 62.9224 291.35 62.9799 291.195 63.026C291.342 62.9569 291.521 62.9051 291.722 62.8619C292.571 62.5972 293.774 62.2201 295.109 61.8028C293.906 62.6 292.597 62.6662 291.722 62.8619ZM291.624 58.26C291.613 58.2168 291.601 58.1736 291.59 58.1305C292.923 57.7132 294.255 57.2987 295.588 56.8814C295.6 56.9246 295.611 56.9677 295.623 57.0109C294.29 57.4282 292.957 57.8427 291.624 58.26ZM291.417 45.6283C293.811 44.88 296.206 44.1346 298.597 43.3863C298.6 43.3979 298.606 43.4094 298.609 43.4209C296.191 44.1749 293.771 44.9318 291.353 45.6859C291.373 45.6657 291.396 45.6456 291.417 45.6283ZM303.464 54.6308C305.048 54.1358 306.822 53.5832 308.3 53.1198C306.929 53.9314 305.094 54.2854 303.464 54.6308ZM308.484 48.2128C308.225 48.846 307.803 49.3036 307.218 49.5885C306.632 49.8734 305.83 50.0432 304.812 50.095L299.688 50.3598L299.648 49.5914C298.612 49.9137 297.573 50.2389 296.529 50.5641C297.556 50.1411 298.595 49.7842 299.642 49.459L299.056 38.2318L304.18 37.967C305.195 37.9152 306.012 38.0073 306.626 38.2491C307.241 38.4908 307.708 38.9197 308.034 39.5384C308.357 40.1572 308.548 41.012 308.605 42.0999L308.79 45.6341C308.848 46.722 308.747 47.5825 308.487 48.2128H308.484ZM311.141 34.1738C311.808 34.594 312.581 34.3033 313.152 34.0817C313.276 34.0155 313.415 33.9608 313.582 33.9292C313.461 33.9637 313.314 34.0184 313.152 34.0817C312.466 34.4558 312.298 35.3077 311.358 35.8143C310.645 36.1999 311.453 36.174 311.759 36.0819C312.792 35.7768 312.223 36.3122 312.246 36.5309C312.266 36.7151 312.448 36.9741 311.917 37.0461C311.629 37.0835 311.13 37.213 311.208 36.741C311.317 36.0906 310.261 36.4618 309.808 36.528C309.09 36.6345 309.22 36.4532 309.032 36.1539C308.718 35.6531 307.997 35.2099 308.493 34.5853C309.304 33.5608 310.172 34.9336 311.141 34.1738ZM305.582 31.6411C307.301 30.8468 308.998 30.6914 310.642 30.2568C308.957 30.677 307.653 32.5851 305.582 31.6411ZM3.37097 81.1863C4.46726 80.8179 4.50765 81.3158 4.84519 81.6583C5.17697 81.995 5.87802 81.8022 6.37135 81.5087C7.94944 80.5675 9.69486 80.3603 11.4143 80.0092C11.7432 79.9401 12.2625 79.7243 12.375 79.7962C12.8337 80.084 13.2145 80.2423 13.5348 80.3114L13.3126 76.0721C12.5625 76.2822 11.8096 76.4721 11.0508 76.5297C10.8287 76.5469 10.3671 76.8117 10.3094 76.9556C9.85641 78.0867 9.87661 78.0752 8.20043 78.6047C6.20979 79.235 4.15857 79.6264 1.98617 80.438L2.10157 82.6311C2.18235 82.6167 2.26602 82.6023 2.3468 82.5937C2.66126 82.1274 2.22851 81.5748 3.37385 81.1892L3.37097 81.1863ZM2.09003 81.1547C2.06984 81.1057 2.04964 81.0568 2.02945 81.0079C3.61907 80.5129 5.20582 80.015 6.79544 79.5199C6.79544 79.5746 6.80121 79.6264 6.80121 79.6811C5.2289 80.1704 3.65946 80.6625 2.08715 81.1518L2.09003 81.1547ZM353.129 80.5618C353.15 80.5157 353.173 80.4697 353.193 80.4265C353.101 80.4754 353.06 80.5215 353.129 80.5618ZM0.246525 47.1307L0.338845 48.8834C0.451359 48.5984 1.04278 48.1725 1.95732 47.8127C1.74095 47.3408 0.907187 47.9682 0.520599 47.7178C1.17261 47.4098 1.81019 47.1076 2.44777 46.8026C2.43912 46.7968 2.43046 46.7939 2.41892 46.791C1.83038 46.7105 0.936037 47.0529 0.246525 47.1335V47.1307ZM8.10234 83.8111C6.1694 84.4155 4.23069 85.0198 2.26313 85.6357C2.27179 85.771 2.28333 85.9034 2.29487 86.0387C4.34898 85.3969 6.2848 84.7925 8.21486 84.191C8.17735 84.0643 8.13985 83.9406 8.10234 83.814V83.8111ZM355.622 63.0951L355.602 62.7152C355.322 62.9828 355.336 63.0548 355.622 63.0951ZM12.7097 64.511L12.6808 63.97C12.4298 64.1311 12.1731 64.2866 11.8961 64.4218C12.0923 64.6089 12.3923 64.5715 12.7068 64.5139L12.7097 64.511ZM13.3155 80.9388C13.3992 80.9647 13.4857 80.982 13.5665 80.9964L13.555 80.7661C13.4684 80.8208 13.3848 80.8784 13.3155 80.9388Z" fill="#FF0006"/>
</svg>
